<svg id="how_to_vote-black-18dp" xmlns="http://www.w3.org/2000/svg" width="39.539" height="39.539" viewBox="0 0 39.539 39.539">
  <path id="Path_34" data-name="Path 34" d="M0,0H39.539V39.539H0Z" fill="none"/>
  <path id="Path_35" data-name="Path 35" d="M16.74,23.451a1.641,1.641,0,0,0,2.323,0L29.541,12.973a1.641,1.641,0,0,0,0-2.323L21.386,2.5a1.606,1.606,0,0,0-2.306-.016L8.585,12.973a1.641,1.641,0,0,0,0,2.323Zm3.493-17.48L26.065,11.8,17.91,19.958l-5.832-5.832,8.155-8.155Zm11.45,18.122L28.19,20.6a1.662,1.662,0,0,0-1.153-.478h-.445L23.3,23.418h3.147l2.916,3.295H6.295l2.932-3.295H12.6L9.31,20.123H8.618a1.7,1.7,0,0,0-1.17.478L3.956,24.093A3.36,3.36,0,0,0,3,26.433v5.222A3.3,3.3,0,0,0,6.295,34.95H29.36a3.294,3.294,0,0,0,3.295-3.295V26.433A3.305,3.305,0,0,0,31.682,24.093Z" transform="translate(1.942 1.294)" fill="#66bb6a"/>
</svg>
